<mxfile host="app.diagrams.net" modified="2020-08-05T14:28:50.235Z" agent="5.0 (Macintosh; Intel Mac OS X 10_14_6) AppleWebKit/537.36 (KHTML, like Gecko) Chrome/84.0.4147.105 Safari/537.36" etag="5VGCi3PP5EQXo7srefyg" version="13.5.9" type="github">
  <diagram name="Page-1" id="aaaa8250-4180-3840-79b5-4cada1eebb92">
    <mxGraphModel dx="1827" dy="606" grid="0" gridSize="10" guides="1" tooltips="1" connect="1" arrows="1" fold="1" page="1" pageScale="1" pageWidth="850" pageHeight="1100" background="#ffffff" math="0" shadow="0">
      <root>
        <mxCell id="0" />
        <mxCell id="1" parent="0" />
        <mxCell id="iSJyoHc_6wj4qevQmHnq-1" value="事故处理执行人" style="swimlane;html=1;startSize=20;horizontal=1;childLayout=flowLayout;flowOrientation=north;resizable=0;interRankCellSpacing=50;containerType=tree;" vertex="1" parent="1">
          <mxGeometry x="-170" y="170" width="140" height="280" as="geometry" />
        </mxCell>
        <mxCell id="iSJyoHc_6wj4qevQmHnq-2" value="" style="whiteSpace=wrap;html=1;" vertex="1" parent="iSJyoHc_6wj4qevQmHnq-1">
          <mxGeometry x="20" y="40" width="100" height="40" as="geometry" />
        </mxCell>
        <mxCell id="iSJyoHc_6wj4qevQmHnq-3" value="Task" style="whiteSpace=wrap;html=1;" vertex="1" parent="iSJyoHc_6wj4qevQmHnq-1">
          <mxGeometry x="20" y="130" width="100" height="40" as="geometry" />
        </mxCell>
        <mxCell id="iSJyoHc_6wj4qevQmHnq-4" value="" style="html=1;curved=1;noEdgeStyle=1;orthogonal=1;" edge="1" parent="iSJyoHc_6wj4qevQmHnq-1" source="iSJyoHc_6wj4qevQmHnq-2" target="iSJyoHc_6wj4qevQmHnq-3">
          <mxGeometry relative="1" as="geometry">
            <Array as="points">
              <mxPoint x="70" y="92" />
              <mxPoint x="70" y="118" />
            </Array>
          </mxGeometry>
        </mxCell>
        <mxCell id="iSJyoHc_6wj4qevQmHnq-7" value="End" style="whiteSpace=wrap;html=1;" vertex="1" parent="iSJyoHc_6wj4qevQmHnq-1">
          <mxGeometry x="20" y="220" width="100" height="40" as="geometry" />
        </mxCell>
        <mxCell id="iSJyoHc_6wj4qevQmHnq-8" value="" style="html=1;curved=1;noEdgeStyle=1;orthogonal=1;" edge="1" parent="iSJyoHc_6wj4qevQmHnq-1" source="iSJyoHc_6wj4qevQmHnq-3" target="iSJyoHc_6wj4qevQmHnq-7">
          <mxGeometry relative="1" as="geometry">
            <Array as="points">
              <mxPoint x="70" y="182" />
              <mxPoint x="70" y="208" />
            </Array>
          </mxGeometry>
        </mxCell>
        <mxCell id="iSJyoHc_6wj4qevQmHnq-73" style="edgeStyle=orthogonalEdgeStyle;rounded=0;orthogonalLoop=1;jettySize=auto;html=1;exitX=0.5;exitY=0.75;exitDx=0;exitDy=0;exitPerimeter=0;entryX=0.5;entryY=0;entryDx=0;entryDy=0;startArrow=oval;startFill=1;endArrow=open;endFill=0;" edge="1" parent="1" source="iSJyoHc_6wj4qevQmHnq-20" target="iSJyoHc_6wj4qevQmHnq-70">
          <mxGeometry relative="1" as="geometry" />
        </mxCell>
        <mxCell id="iSJyoHc_6wj4qevQmHnq-20" value="获知事故发生" style="shape=switch;whiteSpace=wrap;html=1;fillColor=#f8cecc;strokeColor=#b85450;" vertex="1" parent="1">
          <mxGeometry x="300" y="243" width="187" height="83" as="geometry" />
        </mxCell>
        <mxCell id="iSJyoHc_6wj4qevQmHnq-22" value="预防阶段：预防为主" style="text;html=1;strokeColor=none;fillColor=none;align=center;verticalAlign=middle;whiteSpace=wrap;rounded=0;" vertex="1" parent="1">
          <mxGeometry x="70" y="90" width="160" height="20" as="geometry" />
        </mxCell>
        <mxCell id="iSJyoHc_6wj4qevQmHnq-24" value="" style="endArrow=none;dashed=1;html=1;startArrow=oval;startFill=1;" edge="1" parent="1">
          <mxGeometry width="50" height="50" relative="1" as="geometry">
            <mxPoint x="280" y="160" as="sourcePoint" />
            <mxPoint x="280" y="80" as="targetPoint" />
          </mxGeometry>
        </mxCell>
        <mxCell id="iSJyoHc_6wj4qevQmHnq-25" value="" style="endArrow=none;dashed=1;html=1;startArrow=oval;startFill=1;" edge="1" parent="1">
          <mxGeometry width="50" height="50" relative="1" as="geometry">
            <mxPoint x="600" y="160" as="sourcePoint" />
            <mxPoint x="600" y="80" as="targetPoint" />
          </mxGeometry>
        </mxCell>
        <mxCell id="iSJyoHc_6wj4qevQmHnq-26" value="处理阶段：先止损后排查" style="text;html=1;strokeColor=none;fillColor=none;align=center;verticalAlign=middle;whiteSpace=wrap;rounded=0;" vertex="1" parent="1">
          <mxGeometry x="320" y="90" width="210" height="20" as="geometry" />
        </mxCell>
        <mxCell id="iSJyoHc_6wj4qevQmHnq-27" value="复盘阶段: 预防改进" style="text;html=1;strokeColor=none;fillColor=none;align=center;verticalAlign=middle;whiteSpace=wrap;rounded=0;" vertex="1" parent="1">
          <mxGeometry x="610" y="90" width="150" height="20" as="geometry" />
        </mxCell>
        <mxCell id="iSJyoHc_6wj4qevQmHnq-28" value="故障发生时刻" style="text;html=1;strokeColor=none;fillColor=none;align=center;verticalAlign=middle;whiteSpace=wrap;rounded=0;" vertex="1" parent="1">
          <mxGeometry x="210" y="50" width="130" height="20" as="geometry" />
        </mxCell>
        <mxCell id="iSJyoHc_6wj4qevQmHnq-29" value="故障恢复时刻" style="text;html=1;strokeColor=none;fillColor=none;align=center;verticalAlign=middle;whiteSpace=wrap;rounded=0;" vertex="1" parent="1">
          <mxGeometry x="540" y="50" width="130" height="20" as="geometry" />
        </mxCell>
        <mxCell id="iSJyoHc_6wj4qevQmHnq-51" value="" style="endArrow=open;html=1;endFill=0;" edge="1" parent="1" source="iSJyoHc_6wj4qevQmHnq-62">
          <mxGeometry width="50" height="50" relative="1" as="geometry">
            <mxPoint x="70" y="160" as="sourcePoint" />
            <mxPoint x="770" y="160" as="targetPoint" />
          </mxGeometry>
        </mxCell>
        <mxCell id="iSJyoHc_6wj4qevQmHnq-53" value="预防" style="text;html=1;strokeColor=none;fillColor=none;align=center;verticalAlign=middle;whiteSpace=wrap;rounded=0;" vertex="1" parent="1">
          <mxGeometry x="140" y="150" width="40" height="20" as="geometry" />
        </mxCell>
        <mxCell id="iSJyoHc_6wj4qevQmHnq-54" value="" style="endArrow=none;html=1;" edge="1" parent="1" target="iSJyoHc_6wj4qevQmHnq-53">
          <mxGeometry width="50" height="50" relative="1" as="geometry">
            <mxPoint x="70" y="160" as="sourcePoint" />
            <mxPoint x="770.0000000000002" y="160" as="targetPoint" />
          </mxGeometry>
        </mxCell>
        <mxCell id="iSJyoHc_6wj4qevQmHnq-55" value="获知事故" style="text;html=1;strokeColor=none;fillColor=none;align=center;verticalAlign=middle;whiteSpace=wrap;rounded=0;" vertex="1" parent="1">
          <mxGeometry x="310" y="150" width="40" height="20" as="geometry" />
        </mxCell>
        <mxCell id="iSJyoHc_6wj4qevQmHnq-56" value="" style="endArrow=none;html=1;" edge="1" parent="1" source="iSJyoHc_6wj4qevQmHnq-53" target="iSJyoHc_6wj4qevQmHnq-55">
          <mxGeometry width="50" height="50" relative="1" as="geometry">
            <mxPoint x="180" y="160" as="sourcePoint" />
            <mxPoint x="770.0000000000002" y="160" as="targetPoint" />
          </mxGeometry>
        </mxCell>
        <mxCell id="iSJyoHc_6wj4qevQmHnq-57" value="问题定位" style="text;html=1;strokeColor=none;fillColor=none;align=center;verticalAlign=middle;whiteSpace=wrap;rounded=0;" vertex="1" parent="1">
          <mxGeometry x="405" y="150" width="40" height="20" as="geometry" />
        </mxCell>
        <mxCell id="iSJyoHc_6wj4qevQmHnq-58" value="" style="endArrow=none;html=1;" edge="1" parent="1" source="iSJyoHc_6wj4qevQmHnq-55" target="iSJyoHc_6wj4qevQmHnq-57">
          <mxGeometry width="50" height="50" relative="1" as="geometry">
            <mxPoint x="350" y="160" as="sourcePoint" />
            <mxPoint x="770.0000000000002" y="160" as="targetPoint" />
          </mxGeometry>
        </mxCell>
        <mxCell id="iSJyoHc_6wj4qevQmHnq-59" value="快速止损" style="text;html=1;strokeColor=none;fillColor=none;align=center;verticalAlign=middle;whiteSpace=wrap;rounded=0;" vertex="1" parent="1">
          <mxGeometry x="500" y="150" width="40" height="20" as="geometry" />
        </mxCell>
        <mxCell id="iSJyoHc_6wj4qevQmHnq-60" value="" style="endArrow=none;html=1;" edge="1" parent="1" source="iSJyoHc_6wj4qevQmHnq-57" target="iSJyoHc_6wj4qevQmHnq-59">
          <mxGeometry width="50" height="50" relative="1" as="geometry">
            <mxPoint x="425" y="160" as="sourcePoint" />
            <mxPoint x="770.0000000000002" y="160" as="targetPoint" />
          </mxGeometry>
        </mxCell>
        <mxCell id="iSJyoHc_6wj4qevQmHnq-62" value="复盘" style="text;html=1;strokeColor=none;fillColor=none;align=center;verticalAlign=middle;whiteSpace=wrap;rounded=0;" vertex="1" parent="1">
          <mxGeometry x="665" y="150" width="40" height="20" as="geometry" />
        </mxCell>
        <mxCell id="iSJyoHc_6wj4qevQmHnq-63" value="" style="endArrow=none;html=1;" edge="1" parent="1" source="iSJyoHc_6wj4qevQmHnq-59" target="iSJyoHc_6wj4qevQmHnq-62">
          <mxGeometry width="50" height="50" relative="1" as="geometry">
            <mxPoint x="540" y="160" as="sourcePoint" />
            <mxPoint x="770.0000000000002" y="160" as="targetPoint" />
          </mxGeometry>
        </mxCell>
        <mxCell id="iSJyoHc_6wj4qevQmHnq-74" style="rounded=0;orthogonalLoop=1;jettySize=auto;html=1;exitX=1;exitY=0.5;exitDx=0;exitDy=0;entryX=0.5;entryY=0;entryDx=0;entryDy=0;startArrow=oval;startFill=1;endArrow=open;endFill=0;edgeStyle=orthogonalEdgeStyle;" edge="1" parent="1" source="iSJyoHc_6wj4qevQmHnq-76" target="iSJyoHc_6wj4qevQmHnq-66">
          <mxGeometry relative="1" as="geometry" />
        </mxCell>
        <mxCell id="iSJyoHc_6wj4qevQmHnq-78" value="P0/P1" style="edgeLabel;html=1;align=center;verticalAlign=middle;resizable=0;points=[];" vertex="1" connectable="0" parent="iSJyoHc_6wj4qevQmHnq-74">
          <mxGeometry x="-0.3811" relative="1" as="geometry">
            <mxPoint y="1" as="offset" />
          </mxGeometry>
        </mxCell>
        <mxCell id="iSJyoHc_6wj4qevQmHnq-77" style="edgeStyle=orthogonalEdgeStyle;rounded=0;orthogonalLoop=1;jettySize=auto;html=1;exitX=0.5;exitY=1;exitDx=0;exitDy=0;entryX=0.5;entryY=0;entryDx=0;entryDy=0;startArrow=oval;startFill=1;endArrow=open;endFill=0;" edge="1" parent="1" source="iSJyoHc_6wj4qevQmHnq-70" target="iSJyoHc_6wj4qevQmHnq-76">
          <mxGeometry relative="1" as="geometry" />
        </mxCell>
        <mxCell id="iSJyoHc_6wj4qevQmHnq-70" value="建群-拉人" style="whiteSpace=wrap;html=1;" vertex="1" parent="1">
          <mxGeometry x="300" y="357" width="187" height="40" as="geometry" />
        </mxCell>
        <mxCell id="iSJyoHc_6wj4qevQmHnq-72" style="edgeStyle=orthogonalEdgeStyle;rounded=0;orthogonalLoop=1;jettySize=auto;html=1;exitX=0;exitY=0.5;exitDx=0;exitDy=0;entryX=1;entryY=0.5;entryDx=0;entryDy=0;startArrow=oval;startFill=1;endArrow=open;endFill=0;" edge="1" parent="1" source="iSJyoHc_6wj4qevQmHnq-71" target="iSJyoHc_6wj4qevQmHnq-70">
          <mxGeometry relative="1" as="geometry" />
        </mxCell>
        <mxCell id="iSJyoHc_6wj4qevQmHnq-71" value="&lt;ul&gt;&lt;li&gt;* 服务Owner&lt;/li&gt;&lt;li&gt;* 服务产品&lt;/li&gt;&lt;li&gt;OnCall&lt;/li&gt;&lt;/ul&gt;" style="text;strokeColor=none;fillColor=none;html=1;whiteSpace=wrap;verticalAlign=middle;overflow=hidden;" vertex="1" parent="1">
          <mxGeometry x="564" y="337" width="163" height="80" as="geometry" />
        </mxCell>
        <mxCell id="iSJyoHc_6wj4qevQmHnq-64" value="Pool" style="swimlane;html=1;childLayout=stackLayout;resizeParent=1;resizeParentMax=0;startSize=20;horizontal=0;horizontalStack=1;" vertex="1" parent="1">
          <mxGeometry x="8" y="581" width="882" height="427" as="geometry" />
        </mxCell>
        <mxCell id="iSJyoHc_6wj4qevQmHnq-67" value="信息同步泳道" style="swimlane;html=1;startSize=20;" vertex="1" parent="iSJyoHc_6wj4qevQmHnq-64">
          <mxGeometry x="20" width="252.5" height="427" as="geometry" />
        </mxCell>
        <mxCell id="iSJyoHc_6wj4qevQmHnq-82" value="信息同步人&lt;br&gt;同步事故信息" style="whiteSpace=wrap;html=1;" vertex="1" parent="iSJyoHc_6wj4qevQmHnq-67">
          <mxGeometry x="52.25" y="57" width="139.5" height="40" as="geometry" />
        </mxCell>
        <mxCell id="iSJyoHc_6wj4qevQmHnq-65" value="处理泳道" style="swimlane;html=1;startSize=20;" vertex="1" parent="iSJyoHc_6wj4qevQmHnq-64">
          <mxGeometry x="272.5" width="334.5" height="427" as="geometry" />
        </mxCell>
        <mxCell id="iSJyoHc_6wj4qevQmHnq-92" style="edgeStyle=orthogonalEdgeStyle;rounded=0;orthogonalLoop=1;jettySize=auto;html=1;exitX=1;exitY=0.5;exitDx=0;exitDy=0;startArrow=oval;startFill=1;endArrow=open;endFill=0;" edge="1" parent="iSJyoHc_6wj4qevQmHnq-65" source="iSJyoHc_6wj4qevQmHnq-90" target="iSJyoHc_6wj4qevQmHnq-68">
          <mxGeometry relative="1" as="geometry" />
        </mxCell>
        <mxCell id="iSJyoHc_6wj4qevQmHnq-95" value="应急结束" style="whiteSpace=wrap;html=1;" vertex="1" parent="iSJyoHc_6wj4qevQmHnq-65">
          <mxGeometry x="31" y="360" width="139.5" height="40" as="geometry" />
        </mxCell>
        <mxCell id="iSJyoHc_6wj4qevQmHnq-90" value="启动预案" style="whiteSpace=wrap;html=1;" vertex="1" parent="iSJyoHc_6wj4qevQmHnq-65">
          <mxGeometry x="31" y="58" width="139.5" height="40" as="geometry" />
        </mxCell>
        <mxCell id="iSJyoHc_6wj4qevQmHnq-98" style="edgeStyle=orthogonalEdgeStyle;rounded=0;orthogonalLoop=1;jettySize=auto;html=1;exitX=0.5;exitY=1;exitDx=0;exitDy=0;entryX=0.5;entryY=0;entryDx=0;entryDy=0;startArrow=oval;startFill=1;endArrow=open;endFill=0;" edge="1" parent="iSJyoHc_6wj4qevQmHnq-65" source="iSJyoHc_6wj4qevQmHnq-84" target="iSJyoHc_6wj4qevQmHnq-95">
          <mxGeometry relative="1" as="geometry" />
        </mxCell>
        <mxCell id="iSJyoHc_6wj4qevQmHnq-102" value="是" style="edgeLabel;html=1;align=center;verticalAlign=middle;resizable=0;points=[];" vertex="1" connectable="0" parent="iSJyoHc_6wj4qevQmHnq-98">
          <mxGeometry x="-0.1287" y="1" relative="1" as="geometry">
            <mxPoint as="offset" />
          </mxGeometry>
        </mxCell>
        <mxCell id="iSJyoHc_6wj4qevQmHnq-99" value="否" style="edgeStyle=orthogonalEdgeStyle;rounded=0;orthogonalLoop=1;jettySize=auto;html=1;exitX=1;exitY=0.5;exitDx=0;exitDy=0;entryX=0;entryY=0.5;entryDx=0;entryDy=0;startArrow=oval;startFill=1;endArrow=open;endFill=0;" edge="1" parent="iSJyoHc_6wj4qevQmHnq-65" source="iSJyoHc_6wj4qevQmHnq-84" target="iSJyoHc_6wj4qevQmHnq-88">
          <mxGeometry x="-0.2075" y="10" relative="1" as="geometry">
            <mxPoint as="offset" />
          </mxGeometry>
        </mxCell>
        <mxCell id="iSJyoHc_6wj4qevQmHnq-93" style="edgeStyle=orthogonalEdgeStyle;rounded=0;orthogonalLoop=1;jettySize=auto;html=1;exitX=0.5;exitY=1;exitDx=0;exitDy=0;startArrow=oval;startFill=1;endArrow=open;endFill=0;" edge="1" parent="iSJyoHc_6wj4qevQmHnq-65" source="iSJyoHc_6wj4qevQmHnq-90" target="iSJyoHc_6wj4qevQmHnq-84">
          <mxGeometry relative="1" as="geometry">
            <mxPoint x="100.83333333333348" y="149.66666666666674" as="targetPoint" />
          </mxGeometry>
        </mxCell>
        <mxCell id="iSJyoHc_6wj4qevQmHnq-84" value="已止损？" style="rhombus;whiteSpace=wrap;html=1;" vertex="1" parent="iSJyoHc_6wj4qevQmHnq-65">
          <mxGeometry x="36.75" y="209" width="128" height="50" as="geometry" />
        </mxCell>
        <mxCell id="iSJyoHc_6wj4qevQmHnq-88" value="事故升级？" style="rhombus;whiteSpace=wrap;html=1;" vertex="1" parent="iSJyoHc_6wj4qevQmHnq-65">
          <mxGeometry x="203.5" y="209" width="124.5" height="50" as="geometry" />
        </mxCell>
        <mxCell id="iSJyoHc_6wj4qevQmHnq-68" value="Owner主持处理" style="whiteSpace=wrap;html=1;" vertex="1" parent="iSJyoHc_6wj4qevQmHnq-65">
          <mxGeometry x="205.5" y="125" width="122.5" height="40" as="geometry" />
        </mxCell>
        <mxCell id="iSJyoHc_6wj4qevQmHnq-66" value="紧急事故泳道" style="swimlane;html=1;startSize=20;" vertex="1" parent="iSJyoHc_6wj4qevQmHnq-64">
          <mxGeometry x="607" width="275" height="427" as="geometry" />
        </mxCell>
        <mxCell id="iSJyoHc_6wj4qevQmHnq-69" value="Leader接管处理" style="whiteSpace=wrap;html=1;" vertex="1" parent="iSJyoHc_6wj4qevQmHnq-66">
          <mxGeometry x="27" y="126" width="214" height="40" as="geometry" />
        </mxCell>
        <mxCell id="iSJyoHc_6wj4qevQmHnq-100" style="edgeStyle=orthogonalEdgeStyle;rounded=0;orthogonalLoop=1;jettySize=auto;html=1;exitX=1;exitY=0.5;exitDx=0;exitDy=0;entryX=0.5;entryY=1;entryDx=0;entryDy=0;startArrow=oval;startFill=1;endArrow=open;endFill=0;" edge="1" parent="iSJyoHc_6wj4qevQmHnq-64" source="iSJyoHc_6wj4qevQmHnq-88" target="iSJyoHc_6wj4qevQmHnq-69">
          <mxGeometry relative="1" as="geometry" />
        </mxCell>
        <mxCell id="iSJyoHc_6wj4qevQmHnq-101" value="是" style="edgeLabel;html=1;align=center;verticalAlign=middle;resizable=0;points=[];" vertex="1" connectable="0" parent="iSJyoHc_6wj4qevQmHnq-100">
          <mxGeometry x="-0.5172" y="1" relative="1" as="geometry">
            <mxPoint as="offset" />
          </mxGeometry>
        </mxCell>
        <mxCell id="iSJyoHc_6wj4qevQmHnq-81" style="edgeStyle=orthogonalEdgeStyle;rounded=0;orthogonalLoop=1;jettySize=auto;html=1;exitX=0.5;exitY=1;exitDx=0;exitDy=0;entryX=0.47;entryY=-0.002;entryDx=0;entryDy=0;entryPerimeter=0;startArrow=oval;startFill=1;endArrow=open;endFill=0;" edge="1" parent="1" source="iSJyoHc_6wj4qevQmHnq-76" target="iSJyoHc_6wj4qevQmHnq-65">
          <mxGeometry relative="1" as="geometry" />
        </mxCell>
        <mxCell id="iSJyoHc_6wj4qevQmHnq-76" value="预判事故等级" style="rhombus;whiteSpace=wrap;html=1;" vertex="1" parent="1">
          <mxGeometry x="294.5" y="436" width="198" height="50" as="geometry" />
        </mxCell>
        <mxCell id="iSJyoHc_6wj4qevQmHnq-80" style="edgeStyle=orthogonalEdgeStyle;rounded=0;orthogonalLoop=1;jettySize=auto;html=1;exitX=0;exitY=0.5;exitDx=0;exitDy=0;startArrow=oval;startFill=1;endArrow=open;endFill=0;" edge="1" parent="1" source="iSJyoHc_6wj4qevQmHnq-79">
          <mxGeometry relative="1" as="geometry">
            <mxPoint x="725.5" y="509.8333333333335" as="targetPoint" />
          </mxGeometry>
        </mxCell>
        <mxCell id="iSJyoHc_6wj4qevQmHnq-79" value="&lt;ul&gt;&lt;li&gt;* 服务Leader&lt;/li&gt;&lt;li&gt;* 产品Leader&lt;/li&gt;&lt;li&gt;OnCall Leader&lt;/li&gt;&lt;/ul&gt;" style="text;strokeColor=none;fillColor=none;html=1;whiteSpace=wrap;verticalAlign=middle;overflow=hidden;" vertex="1" parent="1">
          <mxGeometry x="785" y="470" width="163" height="80" as="geometry" />
        </mxCell>
        <mxCell id="iSJyoHc_6wj4qevQmHnq-96" style="edgeStyle=orthogonalEdgeStyle;rounded=0;orthogonalLoop=1;jettySize=auto;html=1;exitX=0;exitY=0.5;exitDx=0;exitDy=0;startArrow=oval;startFill=1;endArrow=open;endFill=0;" edge="1" parent="1" source="iSJyoHc_6wj4qevQmHnq-68">
          <mxGeometry relative="1" as="geometry">
            <mxPoint x="393.8333333333335" y="725.6666666666667" as="targetPoint" />
          </mxGeometry>
        </mxCell>
      </root>
    </mxGraphModel>
  </diagram>
</mxfile>
